<svg width="8" height="12" viewBox="0 0 8 12" fill="none" xmlns="http://www.w3.org/2000/svg">
    <path d="M0 9.96581C0 10.1251 0.0907694 10.2546 0.217867 10.3243C0.344963 10.394 0.508387 10.404 0.653648 10.3243L2.75778 9.17027V0.0952148L0 1.60772V9.96581Z" fill="#009FC7"/>
    <path d="M0.217867 10.3243C0.344963 10.394 0.508387 10.404 0.653648 10.3243L5.5155 7.65776L7.61962 8.81178C7.76485 8.89142 7.83748 9.03083 7.83748 9.17028C7.83748 9.30966 7.76485 9.44907 7.61962 9.52874L3.41134 11.8368C3.26609 11.9164 3.10271 11.9065 2.97562 11.8368L0.217867 10.3243Z" fill="#E39400"/>
    <path d="M4.13663 6.90151L7.61962 8.81178C7.76485 8.89142 7.83748 9.03083 7.83748 9.17028L7.8375 6.14527C7.8375 6.00581 7.76491 5.86641 7.61964 5.78677L4.13663 3.87651V6.90151Z" fill="#E6D600"/>
</svg>
