<svg width="22" height="22" viewBox="0 0 22 22" fill="none" xmlns="http://www.w3.org/2000/svg">
    <rect x="1.25" y="1.25" width="19.5" height="19.5" rx="9.75" stroke="white" stroke-width="1.5"/>
    <path d="M2 11C2 15.9706 6.02944 20 11 20C15.9706 20 20 15.9706 20 11C20 6.02944 15.9706 2 11 2C6.02944 2 2 6.02944 2 11Z" fill="#DB015F"/>
    <path d="M8 14.0131V7.28919L10.2068 6V13.3402L8.5205 14.3074C8.48188 14.3318 8.43864 14.348 8.39349 14.355C8.34833 14.3619 8.30223 14.3595 8.25805 14.3479C8.21387 14.3362 8.17256 14.3156 8.13671 14.2873C8.10085 14.259 8.07121 14.2236 8.04964 14.1833C8.01851 14.1306 8.00142 14.0708 8 14.0096V14.0131Z" fill="white"/>
    <path d="M13.8276 14.1585L10.7528 15.9441C10.7022 15.9804 10.6414 16 10.5791 16C10.5167 16 10.456 15.9804 10.4054 15.9441L8.17374 14.6549C8.22437 14.6913 8.28513 14.7108 8.34747 14.7108C8.40981 14.7108 8.47058 14.6913 8.52121 14.6549L12.1448 12.5715L13.8311 13.5387C13.8709 13.5608 13.9058 13.5907 13.9337 13.6266C13.9616 13.6626 13.9819 13.7037 13.9935 13.7477C14.0051 13.7917 14.0077 13.8376 14.0011 13.8826C13.9945 13.9276 13.9789 13.9708 13.9552 14.0096C13.9304 14.0805 13.8843 14.1089 13.8311 14.1585H13.8276Z" fill="white"/>
    <path d="M14.3013 13.6876C14.3011 13.6271 14.2849 13.5677 14.2544 13.5154C14.2239 13.4631 14.1802 13.4198 14.1276 13.3898L11.323 11.778V9.19887L14.1254 10.8355C14.1759 10.8678 14.218 10.9117 14.2482 10.9635C14.2784 11.0153 14.2959 11.0735 14.2992 11.1334L14.3013 13.6876Z" fill="white"/>
</svg>
